/* XPM */
static char * C:\Users\Ronan\Desktop\DRIP images\pixmaps\bitcoin64_xpm[] = {
"64 64 260 2",
"  	c None",
". 	c #9DE0AD",
"+ 	c #9CDFAC",
"@ 	c #9ADEAA",
"# 	c #98DDA8",
"$ 	c #96DCA6",
"% 	c #94DAA4",
"& 	c #91D7A0",
"* 	c #8CD39B",
"= 	c #8AD098",
"- 	c #85CD93",
"; 	c #7FC98D",
"> 	c #7CC689",
", 	c #7CC589",
"' 	c #7FC88C",
") 	c #82CB90",
"! 	c #8AD198",
"~ 	c #92D8A1",
"{ 	c #99DDA9",
"] 	c #4EA657",
"^ 	c #51A659",
"/ 	c #4DA456",
"( 	c #46A04E",
"_ 	c #3F9C47",
": 	c #389941",
"< 	c #33963C",
"[ 	c #2D9435",
"} 	c #28912F",
"| 	c #228F2A",
"1 	c #208D27",
"2 	c #1F8D27",
"3 	c #1F8C26",
"4 	c #1E8C25",
"5 	c #2B9232",
"6 	c #47A150",
"7 	c #64B370",
"8 	c #7EC78B",
"9 	c #95D9A4",
"0 	c #98DCA7",
"a 	c #26902E",
"b 	c #258F2C",
"c 	c #51A65A",
"d 	c #99DEA9",
"e 	c #70BC7C",
"f 	c #5EAF6A",
"g 	c #4DA457",
"h 	c #379940",
"i 	c #228E2A",
"j 	c #3F9C48",
"k 	c #56AA61",
"l 	c #62B26D",
"m 	c #6AB776",
"n 	c #6FBB7C",
"o 	c #71BD7E",
"p 	c #70BB7C",
"q 	c #6EBA7A",
"r 	c #65B471",
"s 	c #5AAC65",
"t 	c #439F4D",
"u 	c #299230",
"v 	c #399942",
"w 	c #7BC488",
"x 	c #9BDFAB",
"y 	c #248F2B",
"z 	c #55AA60",
"A 	c #87CF95",
"B 	c #68B674",
"C 	c #34973C",
"D 	c #4AA253",
"E 	c #8ED59D",
"F 	c #25902B",
"G 	c #62B16D",
"H 	c #7BC589",
"I 	c #3C9A45",
"J 	c #2B9233",
"K 	c #7DC68A",
"L 	c #67B572",
"M 	c #218E28",
"N 	c #74BF81",
"O 	c #6AB876",
"P 	c #7DC78A",
"Q 	c #26902D",
"R 	c #1F8D26",
"S 	c #76C284",
"T 	c #6DB979",
"U 	c #81C98E",
"V 	c #238F2B",
"W 	c #84CC92",
"X 	c #76C183",
"Y 	c #36973F",
"Z 	c #95DAA4",
"` 	c #6FBB7B",
" .	c #5AAC64",
"..	c #5DAF68",
"+.	c #258F2B",
"@.	c #208D28",
"#.	c #89D097",
"$.	c #6FBB7A",
"%.	c #52A75C",
"&.	c #2A9232",
"*.	c #8DD49C",
"=.	c #78C285",
"-.	c #449F4E",
";.	c #60B06B",
">.	c #69B775",
",.	c #36973E",
"'.	c #97DCA6",
").	c #97DCA7",
"!.	c #3C9A44",
"~.	c #5FB06A",
"{.	c #8ED49C",
"].	c #6CB978",
"^.	c #2E9435",
"/.	c #24902B",
"(.	c #36983F",
"_.	c #58AB62",
":.	c #7AC487",
"<.	c #8DD39B",
"[.	c #55A95F",
"}.	c #309538",
"|.	c #228E29",
"1.	c #309438",
"2.	c #72BE7F",
"3.	c #51A75B",
"4.	c #2F9437",
"5.	c #6BB878",
"6.	c #89D198",
"7.	c #94D9A3",
"8.	c #80C98E",
"9.	c #4AA254",
"0.	c #92D7A1",
"a.	c #62B26E",
"b.	c #90D7A0",
"c.	c #36963D",
"d.	c #90D59F",
"e.	c #9CE0AC",
"f.	c #46A04F",
"g.	c #399841",
"h.	c #8FD59E",
"i.	c #4CA356",
"j.	c #7BC588",
"k.	c #90D59E",
"l.	c #238E2A",
"m.	c #90D69F",
"n.	c #99DDA8",
"o.	c #3D9A46",
"p.	c #37993F",
"q.	c #8ED49D",
"r.	c #299131",
"s.	c #83CB91",
"t.	c #5EB069",
"u.	c #3D9B46",
"v.	c #57AA62",
"w.	c #26912E",
"x.	c #6FBC7B",
"y.	c #51A65C",
"z.	c #79C387",
"A.	c #96DBA5",
"B.	c #3A9942",
"C.	c #238F2A",
"D.	c #3B9943",
"E.	c #3E9C47",
"F.	c #50A75A",
"G.	c #7CC68A",
"H.	c #6AB775",
"I.	c #1E8C26",
"J.	c #429D4B",
"K.	c #9BDEAB",
"L.	c #93D8A2",
"M.	c #5FAF6A",
"N.	c #9ADEA9",
"O.	c #2C9334",
"P.	c #6CB877",
"Q.	c #8FD49D",
"R.	c #35973D",
"S.	c #459F4E",
"T.	c #399941",
"U.	c #91D6A0",
"V.	c #37983F",
"W.	c #24902C",
"X.	c #93D9A2",
"Y.	c #75C182",
"Z.	c #67B673",
"`.	c #58AB63",
" +	c #449E4D",
".+	c #79C386",
"++	c #95DBA5",
"@+	c #28902F",
"#+	c #3C9B45",
"$+	c #64B36F",
"%+	c #299231",
"&+	c #6EBB7A",
"*+	c #33953B",
"=+	c #90D6A0",
"-+	c #4FA558",
";+	c #299130",
">+	c #8CD39A",
",+	c #67B573",
"'+	c #32953A",
")+	c #8FD69E",
"!+	c #3A9A43",
"~+	c #2A9131",
"{+	c #78C385",
"]+	c #8DD39C",
"^+	c #84CB91",
"/+	c #2E9336",
"(+	c #89D098",
"_+	c #4EA457",
":+	c #6CBA78",
"<+	c #49A152",
"[+	c #92D8A2",
"}+	c #7BC689",
"|+	c #439E4C",
"1+	c #25902D",
"2+	c #3F9D48",
"3+	c #4EA557",
"4+	c #71BD7F",
"5+	c #9BDEAA",
"6+	c #59AC64",
"7+	c #95DAA5",
"8+	c #9DE0AC",
"9+	c #33963B",
"0+	c #9BDFAA",
"a+	c #60B16B",
"b+	c #2D9335",
"c+	c #74BE80",
"d+	c #319439",
"e+	c #97DBA6",
"f+	c #5CAE67",
"g+	c #95DBA4",
"h+	c #27902E",
"i+	c #6BB977",
"j+	c #61B26C",
"k+	c #67B672",
"l+	c #72BD7E",
"m+	c #9EE0AE",
"n+	c #7EC88B",
"o+	c #88CF96",
"p+	c #7FC88D",
"q+	c #3F9B47",
"r+	c #87CE95",
"s+	c #50A65B",
"t+	c #25902C",
"u+	c #208E27",
"v+	c #98DCA8",
"w+	c #50A65A",
"x+	c #85CD94",
"y+	c #56AA60",
"z+	c #5BAD66",
"A+	c #5DAE68",
"B+	c #57AA61",
"C+	c #54A85E",
"D+	c #51A65B",
"E+	c #4EA458",
"F+	c #4CA355",
"G+	c #48A151",
"H+	c #449F4D",
"I+	c #429E4B",
"J+	c #459F4F",
"K+	c #9EE1AE",
"                                                        . . . . . . . .                                                         ",
"                                              . . . . . . . . . . . . . . . . . .                                               ",
"                                        . . . . . . . . . . . . . . . . . . . . . . . .                                         ",
"                                    . . . . . . . . . . . . . . . . . . . . . . . . . . . .                                     ",
"                                . . . . . . . . . . . . . . . . . . . . . . . . . . . . . . . .                                 ",
"                            . . . . . . . . . . . . . . . . . . . . . . . . . . . . . . . . . . . .                             ",
"                          . . . . . . . . + @ # $ % & * = - ; > , ' ) ! ~ { . . . . . . . . . . . . .                           ",
"                        ] ^ ^ ^ ^ / ( _ : < [ } | 1 2 3 4 4 4 4 4 4 4 4 1 5 6 7 8 9 . . . . . . . . . .                         ",
"                      0 a 4 4 4 4 4 4 4 4 4 4 4 4 4 4 4 4 4 4 4 4 4 4 4 4 4 4 4 4 b c ' d . . . . . . . .                       ",
"                    . + e f g h a 4 4 4 4 4 4 i j k l m n o p q r s t u 4 4 4 4 4 4 4 4 v w x . . . . . . .                     ",
"                  . . . . . . . % y 4 4 4 4 4 z . . . . . . . . . . . # A B C 4 4 4 4 4 4 4 D E . . . . . . .                   ",
"                . . . . . . . . @ F 4 4 4 4 4 G . . . . . . . . . . . . . . { H I 4 4 4 4 4 4 J K . . . . . . .                 ",
"              . . . . . . . . . @ F 4 4 4 4 4 L . . . . . . . . . . . . . . . . { B M 4 4 4 4 4 M N . . . . . . .               ",
"            . . . . . . . . . . @ y 4 4 4 4 4 O . . . . . . . . . . . . . . . . . . P Q 4 4 4 4 4 R S . . . . . . .             ",
"          . . . . . . . . . . . @ F 4 4 4 4 4 T . . . . . . . . . . . . . . . . . . . U V 4 4 4 4 4 V W . . . . . . .           ",
"          . . . . . . . . . . . @ y 4 4 4 4 4 q . . . . . . . . . . . . . . . . . . . . X 3 4 4 4 4 4 Y Z . . . . . .           ",
"        . . . . . . . . . . . . @ F 4 4 4 4 4 ` . . . . . . . . . . . . . . . . . . . . +  .4 4 4 4 4 4 ... . . . . . .         ",
"        . . . . . . . . . . . . @ +.4 4 4 4 4 ` . . . . . . . . . . . . . . . . . . . . . ~ J 4 4 4 4 4 @.#.. . . . . .         ",
"      . . . . . . . . . . . . . @ F 4 4 4 4 4 ` . . . . . . . . . . . . . . . . . . . . . . $.4 4 4 4 4 4 %.. . . . . . .       ",
"      . . . . . . . . . . . . . @ F 4 4 4 4 4 ` . . . . . . . . . . . . . . . . . . . . . . Z &.4 4 4 4 4 M *.. . . . . .       ",
"    . . . . . . . . . . . . . . @ F 4 4 4 4 4 ` . =.-.*.. . . . . . . . . . . . . . . . . . . ;.4 4 4 4 4 4 >.. . . . . . .     ",
"    . . . . . . . . . . . . . . @ F 4 4 4 4 4 ` . q 4 ,.*.. . . . . @ '.).+ . . . . . . . . . W 4 4 4 4 4 4 !.+ . . . . . .     ",
"    . . . . . . . . . . . . . . @ F 4 4 4 4 4 ` . x ~.4 ,.{.. * ].D ^./.a (._.:.).. . . . . . # &.4 4 4 4 4 R <.. . . . . .     ",
"  . . . . . . . . . . . . . . . @ F 4 4 4 4 4 ` . . x ~.4 ,.[.M 4 4 Q }.^.|.4 4 1.2.@ . . . . . 3.4 4 4 4 4 4 =.. . . . . . .   ",
"  . . . . . . . . . . . . . . . @ F 4 4 4 4 4 ` . . . x ~.4 4 4.5.6.0 + + 7.8._.M 4 9.0.. . . . T 4 4 4 4 4 4 a.. . . . . . .   ",
"  . . . . . . . . . . . . . . . @ F 4 4 4 4 4 ` . . . b.{ ~.4 c.{.. . . d.b.e.. ! f.4 g.h.. . . K 4 4 4 4 4 4 i.. . . . . . .   ",
"  . . . . . . . . . . . . . . . @ F 4 4 4 4 4 ` . . j.M e x ~.4 ,.*.. k.l.1 g m.. n.s 4 o.9 . . #.4 4 4 4 4 4 p.+ . . . . . .   ",
"  . . . . . . . . . . . . . . . @ F 4 4 4 4 4 ` . q.r.M s.. x t.4 ,.{.n.~.v 4 u.).. @ [.4 v.e.. m.R 4 4 4 4 4 w.# . . . . . .   ",
". . . . . . . . . . . . . . . . @ F 4 4 4 4 4 ` e.%.4 O . . . x.4 4 ,.*.. { y.4 z.. . A.B.R 8.. A.|.4 4 4 4 4 C.Z . . . . . . . ",
". . . . . . . . . . . . . . . . @ F 4 4 4 4 4 ` - R D.n.. . . E.1 F.4 ,.{.. G.4 H.. . . ' I.J.K.# V 4 4 4 4 4 M L.. . . . . . . ",
". . . . . . . . . . . . . . . . @ y 4 4 4 4 4 ` M.4 e . . . N.&.O.n.~.4 ,.*.).P.Q.. . . x R.4 #.@ Q 4 4 4 4 4 1 & . . . . . . . ",
". . . . . . . . . . . . . . . . @ F 4 4 4 4 4 ` 8 4 S.x . . e.T.|.U.x ~.4 ,.{.. . . . . - 2 V.# N.W.4 4 4 4 4 M X.. . . . . . . ",
". . . . . . . . . . . . . . . . @ F 4 4 4 4 4 ` x f.4 Y.. . . Z.4 `.{ x ~.4 ,.*.. . . {  +4 .+. ).C.4 4 4 4 4 V ++. . . . . . . ",
". . . . . . . . . . . . . . . . @ F 4 4 4 4 4 ` . A |.@+#.. . Z D.4 #+$+_.R 4 ,.*.. + l 4 i.K.. Z |.4 4 4 4 4 %+@ . . . . . . . ",
". . . . . . . . . . . . . . . . @ F 4 4 4 4 4 ` . . &+4 *+! . . =+-+R 4 4 ;+D 4 ,.>+,+3 '+m.. . )+R 4 4 4 4 4 !+e.. . . . . . . ",
". . . . . . . . . . . . . . . . @ F 4 4 4 4 4 ` . . + l 4 ~+{+x . + ]+; ^+Z x ~.4 y 4 /+#.. . . (+4 4 4 4 4 4 _+. . . . . . . . ",
"  . . . . . . . . . . . . . . . @ F 4 4 4 4 4 ` . . . + :+M 4 <+G.A.. . . x [+d ~.4 4 }+. . . . ' 4 4 4 4 4 4 7 . . . . . . .   ",
"  . . . . . . . . . . . . . . . @ F 4 4 4 4 4 ` . . . . . - |+4 4 1+2+3+D C 1 x.x ~.4 ,.{.. . . 4+4 4 4 4 4 4 =.. . . . . . .   ",
"  . . . . . . . . . . . . . . . @ F 4 4 4 4 4 ` . . . . . . 5+8.6+4.1 4 4 C.E.s.. x ~.4 ,.*.. . M.4 4 4 4 4 R * . . . . . . .   ",
"  . . . . . . . . . . . . . . . @ F 4 4 4 4 4 ` . . . . . . . . . @ ~ * q.7+e.. . . x ~.4 ,.7.8+u.4 4 4 4 4 9+0+. . . . . . .   ",
"  . . . . . . . . . . . . . . . @ F 4 4 4 4 4 ` . . . . . . . . . . . . . . . . . . . x a+b+m.L.l.4 4 4 4 4 ;.. . . . . . . .   ",
"    . . . . . . . . . . . . . . @ F 4 4 4 4 4 ` . . . . . . . . . . . . . . . . . . . . e.# . , 4 4 4 4 4 4 W . . . . . . .     ",
"    . . . . . . . . . . . . . . @ F 4 4 4 4 4 ` . . . . . . . . . . . . . . . . . . . . . . . _.4 4 4 4 4 T.@ . . . . . . .     ",
"    . . . . . . . . . . . . . . @ F 4 4 4 4 4 ` . . . . . . . . . . . . . . . . . . . . . . 0.b 4 4 4 4 4 c+. . . . . . . .     ",
"      . . . . . . . . . . . . . @ F 4 4 4 4 4 ` . . . . . . . . . . . . . . . . . . . . . . ].4 4 4 4 4 d+e+. . . . . . .       ",
"      . . . . . . . . . . . . . @ F 4 4 4 4 4 ` . . . . . . . . . . . . . . . . . . . . . 7.J 4 4 4 4 4 Y.. . . . . . . .       ",
"        . . . . . . . . . . . . N.y 4 4 4 4 4 ` . . . . . . . . . . . . . . . . . . . . . f+4 4 4 4 4 f.@ . . . . . . .         ",
"        . . . . . . . . . . . . n.V 4 4 4 4 4 ` . . . . . . . . . . . . . . . . . . . . :.R 4 4 4 4 r.]+. . . . . . . .         ",
"          . . . . . . . . . . . ).C.4 4 4 4 4 ` . . . . . . . . . . . . . . . . . . . W Q 4 4 4 4 R .+. . . . . . . .           ",
"          . . . . . . . . . . . g+|.4 4 4 4 4 ` . . . . . . . . . . . . . . . . . . P h+4 4 4 4 4 i+. . . . . . . . .           ",
"            . . . . . . . . . . ~ M 4 4 4 4 4 ` . . . . . . . . . . . . . . . . A.j+1 4 4 4 4 R k++ . . . . . . . .             ",
"              . . . . . . . . . h.R 4 4 4 4 4 ` . . . . . . . . . . . . . . m.&+1.4 4 4 4 4 l.l+e.. . . . . . . .               ",
"                . . . . . m+e.'.n+4 4 4 4 4 4 ~.o+6.]+)+m.& ~ X.~ m.! p+m 6 |.4 4 4 4 4 4 q+r+. . . . . . . . .                 ",
"                  . . h.r s+T.t+3 4 4 4 4 4 4 4 4 4 4 4 R 1 u+M M 3 4 4 4 4 4 4 4 4 4 '+2.v+. . . . . . . . .                   ",
"                    . X 4 4 4 4 4 4 4 4 4 4 4 4 4 4 4 4 4 4 4 4 4 4 4 4 4 4 4 4 1+w+G.v+. . . . . . . . . .                     ",
"                      x+y+`.s z+A+A+z+ .`.B+C+%.D+w+E+F+9.G+f.H+I+I+J+E+z $+l+W A.. . . . . . . . . . . .                       ",
"                        m+m+. . . . . . m+m+m+K+K+K+K+K+m+. . . . . . K+m+. . . . . . . . . . . . . . .                         ",
"                          . . . . . . . . . . . . . . . . . . . . . . . . . . . . . . . . . . . . . .                           ",
"                            . . . . . . . . . . . . . . . . . . . . . . . . . . . . . . . . . . . .                             ",
"                                . . . . . . . . . . . . . . . . . . . . . . . . . . . . . . . .                                 ",
"                                    . . . . . . . . . . . . . . . . . . . . . . . . . . . .                                     ",
"                                        . . . . . . . . . . . . . . . . . . . . . . . .                                         ",
"                                              . . . . . . . . . . . . . . . . . .                                               ",
"                                                        . . . . . . . .                                                         "};
