/* XPM */
static char * C:\Users\Ronan\Desktop\DRIP images\pixmaps\newlogo\bitcoin64_xpm[] = {
"51 64 333 2",
"  	c None",
". 	c #FFA015",
"+ 	c #FF9F13",
"@ 	c #FF9D00",
"# 	c #FFA116",
"$ 	c #FFA016",
"% 	c #FFA21E",
"& 	c #FFA221",
"* 	c #FFA428",
"= 	c #FFA429",
"- 	c #FF9D02",
"; 	c #FF9D01",
"> 	c #FF9E07",
", 	c #FF9E08",
"' 	c #FF9F0D",
") 	c #FF9F0C",
"! 	c #FFA013",
"~ 	c #FFA222",
"{ 	c #FFA220",
"] 	c #FFA425",
"^ 	c #FFA527",
"/ 	c #FFA018",
"( 	c #FFA322",
"_ 	c #FFA014",
": 	c #FFA62E",
"< 	c #FFA62C",
"[ 	c #FFA325",
"} 	c #FFA324",
"| 	c #FF9E06",
"1 	c #FF9E05",
"2 	c #FFA119",
"3 	c #FFA52A",
"4 	c #FFA10E",
"5 	c #FF9F09",
"6 	c #FFA327",
"7 	c #FFA009",
"8 	c #FFB913",
"9 	c #FFC924",
"0 	c #FFA118",
"a 	c #FFA11C",
"b 	c #FFA72F",
"c 	c #FFCB35",
"d 	c #FFC925",
"e 	c #FFCA2A",
"f 	c #FFA421",
"g 	c #FFA41E",
"h 	c #FFA61E",
"i 	c #FFC228",
"j 	c #FFCB2D",
"k 	c #FFCB2E",
"l 	c #FF9F01",
"m 	c #FFBB13",
"n 	c #FFC81A",
"o 	c #FFC81F",
"p 	c #FF9E09",
"q 	c #FF9F02",
"r 	c #FFC921",
"s 	c #FD9D10",
"t 	c #F49B2F",
"u 	c #FE9D0B",
"v 	c #E19660",
"w 	c #8F86B1",
"x 	c #607FC9",
"y 	c #DA956A",
"z 	c #FF9F04",
"A 	c #FFBB14",
"B 	c #FE9D06",
"C 	c #E69756",
"D 	c #9987AB",
"E 	c #3A7BD5",
"F 	c #267AD9",
"G 	c #447DD2",
"H 	c #C8A686",
"I 	c #FEC820",
"J 	c #FFCA2C",
"K 	c #FFA529",
"L 	c #FF9D03",
"M 	c #EB984D",
"N 	c #A389A5",
"O 	c #417CD3",
"P 	c #267FDC",
"Q 	c #3483DA",
"R 	c #B3A79D",
"S 	c #FBC62A",
"T 	c #FFC81B",
"U 	c #CA8960",
"V 	c #497BCD",
"W 	c #2681DD",
"X 	c #2B82DC",
"Y 	c #9A9EAF",
"Z 	c #F6C43B",
"` 	c #FFC923",
" .	c #AF6E1F",
"..	c #305288",
"+.	c #2777D2",
"@.	c #2781DD",
"#.	c #8195BF",
"$.	c #EEC14F",
"%.	c #FFCB33",
"&.	c #AF6E18",
"*.	c #352B26",
"=.	c #314873",
"-.	c #2873CC",
";.	c #678ECA",
">.	c #E2BB65",
",.	c #FFC920",
"'.	c #FFA530",
").	c #352B25",
"!.	c #333F5C",
"~.	c #2973C4",
"{.	c #5088D3",
"].	c #D2B47C",
"^.	c #FEC81D",
"/.	c #352F27",
"(.	c #343C4A",
"_.	c #2B6EB8",
":.	c #2681DC",
"<.	c #3C84D8",
"[.	c #BFAD92",
"}.	c #FDC723",
"|.	c #FFCA29",
"1.	c #353128",
"2.	c #353639",
"3.	c #2D66A6",
"4.	c #2680DB",
"5.	c #2F82DB",
"6.	c #A8A3A6",
"7.	c #F9C631",
"8.	c #FFC81E",
"9.	c #FF9232",
"0.	c #FF9000",
"a.	c #AF6E19",
"b.	c #352F28",
"c.	c #35332E",
"d.	c #315C92",
"e.	c #3081D8",
"f.	c #2882DC",
"g.	c #8F9AB7",
"h.	c #F3C243",
"i.	c #FF8D24",
"j.	c #FF8500",
"k.	c #FF9C00",
"l.	c #FFA102",
"m.	c #AF7D1F",
"n.	c #4A4029",
"o.	c #C2A979",
"p.	c #5489D2",
"q.	c #7692C4",
"r.	c #E9BE59",
"s.	c #FFCA2D",
"t.	c #FF870F",
"u.	c #FF8F00",
"v.	c #FFBD15",
"w.	c #AF8B22",
"x.	c #4C4027",
"y.	c #F0BD1C",
"z.	c #E4BD62",
"A.	c #6C8FC8",
"B.	c #5C8BCE",
"C.	c #DBB870",
"D.	c #FF8606",
"E.	c #F1BD1C",
"F.	c #F0C249",
"G.	c #8797BB",
"H.	c #2881DD",
"I.	c #4C87D4",
"J.	c #F3C24E",
"K.	c #FF8501",
"L.	c #F7C536",
"M.	c #A1A1AB",
"N.	c #2D82DC",
"O.	c #3483DB",
"P.	c #F1C158",
"Q.	c #FFC922",
"R.	c #FFBE15",
"S.	c #FCC726",
"T.	c #BAAA96",
"U.	c #3984D9",
"V.	c #FEC81E",
"W.	c #CFB380",
"X.	c #4C87D3",
"Y.	c #FF9101",
"Z.	c #E0BB68",
"`.	c #5F8BCD",
" +	c #FF8701",
".+	c #FF950A",
"++	c #FFAC13",
"@+	c #FFC71A",
"#+	c #E3B758",
"$+	c #6477B8",
"%+	c #267AD8",
"&+	c #FF9A0D",
"*+	c #FFC61A",
"=+	c #FEC81C",
"-+	c #D4AE6C",
";+	c #526BBA",
">+	c #265EC4",
",+	c #2661C6",
"'+	c #2676D4",
")+	c #FF8710",
"!+	c #FDC721",
"~+	c #C0A380",
"{+	c #3D64BF",
"]+	c #265FC5",
"^+	c #2671D1",
"/+	c #2680DD",
"(+	c #FFCA30",
"_+	c #FF8D23",
":+	c #FFAC12",
"<+	c #F9C52C",
"[+	c #A99692",
"}+	c #3060C2",
"|+	c #266DCE",
"1+	c #3481DA",
"2+	c #FF9231",
"3+	c #F3C13C",
"4+	c #9088A2",
"5+	c #295FC4",
"6+	c #4970C3",
"7+	c #F3C24C",
"8+	c #FFAB12",
"9+	c #AF8822",
"0+	c #E9BB4E",
"a+	c #777AAE",
"b+	c #275EC4",
"c+	c #586EB8",
"d+	c #D9B166",
"e+	c #FFC81D",
"f+	c #FF8B12",
"g+	c #FF960B",
"h+	c #AF6F1E",
"i+	c #4B4028",
"j+	c #CAA664",
"k+	c #5C70B7",
"l+	c #7077B1",
"m+	c #E6BA53",
"n+	c #FFC927",
"o+	c #FFA030",
"p+	c #AF6C1D",
"q+	c #352D27",
"r+	c #35322B",
"s+	c #33467A",
"t+	c #3661BD",
"u+	c #285FC4",
"v+	c #8884A5",
"w+	c #F0C041",
"x+	c #FF9A11",
"y+	c #352B27",
"z+	c #353331",
"A+	c #2E4B8C",
"B+	c #265DC1",
"C+	c #2C5FC3",
"D+	c #A09099",
"E+	c #F7C431",
"F+	c #FF9F23",
"G+	c #34343C",
"H+	c #2C509C",
"I+	c #265EC3",
"J+	c #3662C1",
"K+	c #B69D88",
"L+	c #FCC625",
"M+	c #FFCB31",
"N+	c #FF9B13",
"O+	c #33324B",
"P+	c #2A50A8",
"Q+	c #4667BD",
"R+	c #CBA977",
"S+	c #FEC71E",
"T+	c #FFA029",
"U+	c #32365D",
"V+	c #2951B2",
"W+	c #2657C2",
"X+	c #2659C3",
"Y+	c #5B6EB8",
"Z+	c #DBB363",
"`+	c #FF9D1C",
" @	c #AF6C20",
".@	c #313C70",
"+@	c #2754B9",
"@@	c #7279AF",
"#@	c #E8BA50",
"$@	c #FFCA2B",
"%@	c #C37D58",
"&@	c #3B59B9",
"*@	c #8C85A4",
"=@	c #F1C03E",
"-@	c #FF9A10",
";@	c #FE9A12",
">@	c #E28E56",
",@	c #91709F",
"'@	c #3359BF",
")@	c #2D60C2",
"!@	c #A39297",
"~@	c #F8C42F",
"{@	c #FF9B11",
"]@	c #FD9916",
"^@	c #DA8B60",
"/@	c #856CA5",
"(@	c #2E58C0",
"_@	c #3859BE",
":@	c #B98884",
"<@	c #FCC423",
"[@	c #FB991B",
"}@	c #D3886A",
"|@	c #7868AA",
"1@	c #4B5DB9",
"2@	c #CD8671",
"3@	c #FFA911",
"4@	c #FFC619",
"5@	c #FF9C18",
"6@	c #F99822",
"7@	c #EC9344",
"8@	c #FF9A0E",
"9@	c #FF9E22",
"0@	c #FFCA2E",
"a@	c #FF9C16",
"b@	c #FFA811",
"c@	c #FFC519",
"d@	c #FFA230",
"e@	c #FF9E1F",
"f@	c #FF9B16",
"g@	c #FFA812",
"h@	c #FFC621",
"i@	c #FFCA28",
"j@	c #FFA027",
"k@	c #FFA02D",
"l@	c #FF9D1A",
"m@	c #FF9C1E",
"n@	c #FF9C17",
"o@	c #FF9B17",
"p@	c #FF9C1D",
"q@	c #FF9E1C",
"r@	c #FFA12E",
"                                                                                                      ",
"                                                  .                                                   ",
"                                                + @ #                                                 ",
"                                              $ @ @ @ %                                               ",
"                                            & @ @ @ @ @ *                                             ",
"                                          = @ @ @ @ @ @ -                                             ",
"                                          ; @ @ @ @ @ @ @ >                                           ",
"                                        , @ @ @ @ @ @ @ @ @ '                                         ",
"                                      ) @ @ @ @ @ @ @ @ @ @ @ !                                       ",
"                                    . @ @ @ @ @ @ @ @ @ @ @ @ @ ~                                     ",
"                                  { @ @ @ @ @ @ @ @ @ @ @ @ @ @ @ ]                                   ",
"                                ^ @ @ @ @ @ @ - / ( _ ; @ @ @ @ @ - :                                 ",
"                              < ; @ @ @ @ ) [           } > @ @ @ @ |                                 ",
"                              1 @ @ - 2 :                   3 . ; @ @ 4                               ",
"                            5 @ ' 6                               } 7 8 9                             ",
"                          0 a b                                       c d e                           ",
"                                                                                                      ",
"                                                                                                      ",
"                                                                                                      ",
"                    f g g g g g g g g g g g g g g g g g g h i j j j j j j j j j k                     ",
"                  | @ @ @ @ @ @ @ @ @ @ @ @ @ @ @ @ @ @ l m n n n n n n n n n n n o                   ",
"                p @ @ @ @ @ @ @ @ @ @ @ @ @ @ @ @ @ @ q m n n n n n n n n n n n n n r                 ",
"              | @ @ @ @ @ @ @ @ @ @ @ @ @ @ s t ; @ q m n n n n n n n n n n n n n n n o               ",
"            5 @ @ @ @ @ @ @ @ @ @ @ @ @ u v w x y z A n n n n n n n n n n n n n n n n n 9             ",
"          . @ @ @ @ @ @ @ @ @ @ @ @ B C D E F F G H I n n n n n n n n n n n n n n n n n n J           ",
"        K @ @ @ @ @ @ @ @ @ @ @ L M N O F F F F P Q R S n n n n n n n n n n n n n n n n n T           ",
"        p @ @ @ @ @ @ @ @ @ @ @ U V F F F F F P W W X Y Z n n n n n n n n n n n n n n n n n `         ",
"      ( @ @ @ @ @ @ @ @ @ @ @ @  ...+.F F F P W W W W @.#.$.n n n n n n n n n n n n n n n n n %.      ",
"      | @ @ @ @ @ @ @ @ @ @ @ @ &.*.=.-.F P W W W W W W W ;.>.T n n n n n n n n n n n n n n n ,.      ",
"    '.@ @ @ @ @ @ @ @ @ @ @ @ @ &.).).!.~.W W W W W W W W W {.].^.n n n n n n n n n n n n n n n       ",
"    + @ @ @ @ @ @ @ @ @ @ @ @ @ &.).)./.(._.:.W W W W W W W W <.[.}.n n n n n n n n n n n n n n |.    ",
"    ; @ @ @ @ @ @ @ @ @ @ @ @ @ &.)./.1.1.2.3.4.W W W W W W W W 5.6.7.n n n n n n n n n n n n n 8.    ",
"  9.0.@ @ @ @ @ @ @ @ @ @ @ @ @ a.b.1.1.1.1.c.d.e.W W W W W W W W f.g.h.n n n n n n n n n n n n n     ",
"  i.j.0.k.@ @ @ @ @ @ @ @ @ @ l.m.1.1.1.1.1.1.n.o.p.W W W W W W W W @.q.r.n n n n n n n n n n n n s.  ",
"  t.j.j.u.k.@ @ @ @ @ @ @ @ l.v.w.1.1.1.1.1.1.x.y.z.A.W W W W W W W W W B.C.T n n n n n n n n n n J   ",
"  D.j.j.j.u.k.@ @ @ @ @ @ l.v.n w.1.1.1.1.1.1.x.E.n F.G.H.W W W W W W W W I.J.n n n n n n n n n n `   ",
"  K.j.j.j.j.u.k.@ @ @ @ l.v.n n w.1.1.1.1.1.1.x.E.n n L.M.N.W W W W W W W O.P.n n n n n n n n n n Q.  ",
"  K.j.j.j.j.j.u.k.@ @ l.R.n n n w.1.1.1.1.1.1.x.E.n n n S.T.U.W W W W W W O.P.n n n n n n n n n n Q.  ",
"  K.j.j.j.j.j.j.u.k.l.R.n n n n w.1.1.1.1.1.1.x.E.n n n n V.W.X.W W W W W O.P.n n n n n n n n n n `   ",
"  K.j.j.j.j.j.j.j.Y.v.n n n n n w.1.1.1.1.1.1.x.E.n n n n n T Z.`.W W W W O.P.n n n n n n n n n n Q.  ",
"  K.j.j.j.j.j.j. +.+++@+n n n n w.1.1.1.1.1.1.x.E.n n n n n T #+$+%+W W W O.P.n n n n n n n n n n r   ",
"  D.j.j.j.j.j. +.+&+&+++*+n n n w.1.1.1.1.1.1.x.E.n n n n =+-+;+>+,+'+W W O.P.n n n n n n n n n n `   ",
"  )+j.j.j.j. +.+&+&+&+&+++*+n n w.1.1.1.1.1.1.x.E.n n n !+~+{+>+>+>+]+^+/+O.P.n n n n n n n n n n (+  ",
"  _+j.j.j. +.+&+&+&+&+&+&+:+*+n w.1.1.1.1.1.1.x.E.n n <+[+}+>+>+>+>+>+>+|+1+P.n n n n n n n n n n J   ",
"  2+j.j. +.+&+&+&+&+&+&+&+&+:+*+w.1.1.1.1.1.1.x.E.n 3+4+5+>+>+>+>+>+>+>+>+6+7+n n n n n n n n n n     ",
"    K. +.+&+&+&+&+&+&+&+&+&+&+8+9+1.1.1.1.1.1.x.E.0+a+b+>+>+>+>+>+>+>+>+c+d+T n n n n n n n n n e+    ",
"    f+g+&+&+&+&+&+&+&+&+&+&+&+&+h+1.1.1.1.1.1.i+j+k+>+>+>+>+>+>+>+>+b+l+m+n n n n n n n n n n n n+    ",
"    o+&+&+&+&+&+&+&+&+&+&+&+&+&+p+q+1.1.1.1.r+s+t+>+>+>+>+>+>+>+>+u+v+w+n n n n n n n n n n n n       ",
"      x+&+&+&+&+&+&+&+&+&+&+&+&+p+y+q+1.1.z+A+B+>+>+>+>+>+>+>+>+C+D+E+n n n n n n n n n n n n r       ",
"      F+&+&+&+&+&+&+&+&+&+&+&+&+p+y+y+q+G+H+I+>+>+>+>+>+>+>+>+J+K+L+n n n n n n n n n n n n n M+      ",
"        N+&+&+&+&+&+&+&+&+&+&+&+p+y+y+O+P+>+>+>+>+>+>+>+>+>+Q+R+S+n n n n n n n n n n n n n Q.        ",
"        T+&+&+&+&+&+&+&+&+&+&+&+p+y+U+V+W+X+>+>+>+>+>+>+>+Y+Z+T n n n n n n n n n n n n n n           ",
"          `+&+&+&+&+&+&+&+&+&+&+ @.@+@W+W+W+X+>+>+>+>+b+@@#@n n n n n n n n n n n n n n n $@          ",
"            N+&+&+&+&+&+&+&+&+&+%@&@W+W+W+W+W+X+>+>+u+*@=@n n n n n n n n n n n n n n n `             ",
"              -@&+&+&+&+&+&+&+&+;@>@,@'@W+W+W+W+X+)@!@~@n n n n n n n n n n n n n n n 8.              ",
"                {@&+&+&+&+&+&+&+&+&+]@^@/@(@W+W+_@:@<@n n n n n n n n n n n n n n n ,.                ",
"                  {@&+&+&+&+&+&+&+&+&+&+[@}@|@1@2@;@3@4@n n n n n n n n n n n n n o                   ",
"                    5@&+&+&+&+&+&+&+&+&+&+&+6@7@8@&+&+3@4@n n n n n n n n n n n `                     ",
"                      9@8@&+&+&+&+&+&+&+&+&+&+&+&+&+&+&+3@4@n n n n n n n n T 0@                      ",
"                          a@&+&+&+&+&+&+&+&+&+&+&+&+&+&+&+b@c@n n n n n n 9                           ",
"                            d@a@&+&+&+&+&+&+&+&+&+&+&+&+&+&+b@c@n n T Q.                              ",
"                                  e@f@&+&+&+&+&+&+&+&+&+&+&+&+g@h@i@                                  ",
"                                        j@k@l@m@f@n@o@p@q@k@r@                                        ",
"                                                                                                      "};
