/* XPM */
static char * C:\Users\Ronan\Desktop\DRIP images\pixmaps\newlogo\bitcoin16_xpm[] = {
"13 16 87 1",
" 	c None",
".	c #FFA019",
"+	c #FF9F10",
"@	c #FF9D00",
"#	c #FF9F13",
"$	c #FFA016",
"%	c #FF9D06",
"&	c #FF9F12",
"*	c #FFA013",
"=	c #FF9E06",
"-	c #FF9D01",
";	c #F39A46",
">	c #FAA12E",
",	c #FFC117",
"'	c #FFC81A",
")	c #FFC81D",
"!	c #FF9E08",
"~	c #BF898B",
"{	c #467DD4",
"]	c #7F91C6",
"^	c #F1C154",
"/	c #FFC81E",
"(	c #7D553F",
"_	c #2B6EBA",
":	c #2681DD",
"<	c #608AD1",
"[	c #E4BB6F",
"}	c #FF8B0F",
"|	c #FF9900",
"1	c #FFA405",
"2	c #7D5D24",
"3	c #373430",
"4	c #A59CA5",
"5	c #2E82DC",
"6	c #4285D9",
"7	c #D5B487",
"8	c #FFC921",
"9	c #FF8819",
"0	c #FF8800",
"a	c #FFA005",
"b	c #FFC318",
"c	c #7D6526",
"d	c #383328",
"e	c #F2BE1E",
"f	c #D1B38B",
"g	c #4084D9",
"h	c #999BBC",
"i	c #FFC81B",
"j	c #FFC923",
"k	c #FF870F",
"l	c #FF8902",
"m	c #FF9C0D",
"n	c #FFC018",
"o	c #F2BE1D",
"p	c #D2AC79",
"q	c #416DC6",
"r	c #9999B9",
"s	c #FFC922",
"t	c #FF8F17",
"u	c #FF980C",
"v	c #FF9A0D",
"w	c #FF9E0E",
"x	c #7D5A25",
"y	c #37332E",
"z	c #A89190",
"A	c #2F60C3",
"B	c #4164C0",
"C	c #D4AE79",
"D	c #FF9A10",
"E	c #7D5138",
"F	c #2C51A3",
"G	c #265EC4",
"H	c #5D6EBB",
"I	c #E3B664",
"J	c #FFC81C",
"K	c #FF9A0E",
"L	c #BB7C7E",
"M	c #415BBE",
"N	c #7A78B2",
"O	c #EFBE4E",
"P	c #FF9A11",
"Q	c #F19446",
"R	c #F99A30",
"S	c #FFBD17",
"T	c #FF9C18",
"U	c #FF9C19",
"V	c #FF9F19",
"      .      ",
"     +@#     ",
"    $@%@     ",
"    &   *    ",
"             ",
"  =@-;>,'')  ",
" !@@~{]^'''/ ",
" @@@(_:<[''' ",
"}|@1234567''8",
"90abcdefghi'j",
"klmncdopqri's",
"tuvwxyzABC'' ",
" DvvEFGHI''J ",
"  KvLMNO''i  ",
"   PKQRS')   ",
"     TUV     "};
