/* XPM */
static char * C:\Users\Ronan\Desktop\DRIP images\pixmaps\bitcoin16_xpm[] = {
"16 16 84 1",
" 	c None",
".	c #9DE0AD",
"+	c #81C98F",
"@	c #8DD29C",
"#	c #8BD099",
"$	c #88CD96",
"%	c #83C991",
"&	c #8CD19B",
"*	c #9BDEAB",
"=	c #9CE0AC",
"-	c #7AC288",
";	c #409A48",
">	c #2C9133",
",	c #7BC288",
"'	c #7FC68C",
")	c #79C186",
"!	c #5CAB67",
"~	c #32943A",
"{	c #71BB7E",
"]	c #9BDFAB",
"^	c #56A65F",
"/	c #3D9945",
"(	c #89CE97",
"_	c #2B9032",
":	c #5DAC68",
"<	c #3F9A48",
"[	c #77C084",
"}	c #1E8C25",
"|	c #80C78E",
"1	c #7DC58B",
"2	c #84CA92",
"3	c #78C085",
"4	c #79C286",
"5	c #96DAA5",
"6	c #98DCA8",
"7	c #248E2C",
"8	c #54A65F",
"9	c #8BD19A",
"0	c #69B575",
"a	c #87CE95",
"b	c #73BD80",
"c	c #70BA7C",
"d	c #90D49E",
"e	c #489E51",
"f	c #2C9134",
"g	c #6CB878",
"h	c #8ED39C",
"i	c #5BAC66",
"j	c #97DBA7",
"k	c #6DB879",
"l	c #55A65F",
"m	c #1F8D26",
"n	c #9BDEAA",
"o	c #7BC388",
"p	c #87CD96",
"q	c #6FB97B",
"r	c #76BF83",
"s	c #82C990",
"t	c #51A35A",
"u	c #268F2D",
"v	c #80C78D",
"w	c #72BC7F",
"x	c #79C287",
"y	c #3B9743",
"z	c #499F53",
"A	c #89CF97",
"B	c #71BA7D",
"C	c #68B374",
"D	c #32933A",
"E	c #52A45B",
"F	c #9ADDA9",
"G	c #2A9031",
"H	c #87CD95",
"I	c #97DBA6",
"J	c #64B170",
"K	c #3E9947",
"L	c #379640",
"M	c #55A75F",
"N	c #56A861",
"O	c #53A65D",
"P	c #459D4E",
"Q	c #90D59F",
"R	c #9EE0AE",
"S	c #9EE1AE",
"     ......     ",
"   +@#$%%&*..   ",
"  =-;>,')!~{].  ",
" ...^/....(_:.. ",
" ...^<.....[}|. ",
"....^<12345678..",
"....^<90abcdef..",
"....^<ghi3jklmn.",
"....^<opqirstu=.",
"....^<.vwxb@yz..",
"....^<.....A}B..",
" ...l<.....CD5. ",
" ...E<...F{GH.. ",
"  IJKLMNOPJQ..  ",
"   ..RS......   ",
"     ......     "};
