/* XPM */
static char * C:\Users\Ronan\Desktop\DRIP images\pixmaps\bitcoin32_xpm[] = {
"32 32 162 2",
"  	c None",
". 	c #9DE0AD",
"+ 	c #72BD7E",
"@ 	c #7EC68B",
"# 	c #7EC58B",
"$ 	c #7AC387",
"% 	c #77C084",
"& 	c #73BD80",
"* 	c #6FBA7B",
"= 	c #6AB576",
"- 	c #64B170",
"; 	c #5DAD68",
"> 	c #5DAC68",
", 	c #63B16F",
"' 	c #70BA7C",
") 	c #80C88E",
"! 	c #94D8A3",
"~ 	c #9BDFAB",
"{ 	c #4EA358",
"] 	c #34963C",
"^ 	c #208D27",
"/ 	c #1E8C25",
"( 	c #1F8D26",
"_ 	c #3A9843",
": 	c #4CA256",
"< 	c #53A65E",
"[ 	c #53A55D",
"} 	c #489F51",
"| 	c #2D9335",
"1 	c #50A459",
"2 	c #82C990",
"3 	c #71BB7D",
"4 	c #459E4E",
"5 	c #9CDFAC",
"6 	c #8CD29B",
"7 	c #69B575",
"8 	c #28902F",
"9 	c #56A861",
"0 	c #96DAA5",
"a 	c #73BC7F",
"b 	c #91D6A0",
"c 	c #479F50",
"d 	c #429B4B",
"e 	c #94D9A4",
"f 	c #52A55B",
"g 	c #97DBA6",
"h 	c #439C4C",
"i 	c #4DA257",
"j 	c #53A65D",
"k 	c #8DD29B",
"l 	c #228E29",
"m 	c #75BE82",
"n 	c #63B16D",
"o 	c #329439",
"p 	c #99DDA9",
"q 	c #8AD098",
"r 	c #56A961",
"s 	c #8AD099",
"t 	c #7FC78D",
"u 	c #69B675",
"v 	c #54A75E",
"w 	c #75BE81",
"x 	c #469E4F",
"y 	c #2A9232",
"z 	c #2C9333",
"A 	c #7FC78C",
"B 	c #9CE0AC",
"C 	c #33953B",
"D 	c #61AF6C",
"E 	c #99DEA9",
"F 	c #69B574",
"G 	c #2A9131",
"H 	c #89D098",
"I 	c #9CDFAB",
"J 	c #88CE96",
"K 	c #53A65C",
"L 	c #5AAA65",
"M 	c #9ADDA9",
"N 	c #57A861",
"O 	c #429C4C",
"P 	c #95DAA4",
"Q 	c #3D9A46",
"R 	c #5AAB65",
"S 	c #9BDEAA",
"T 	c #66B371",
"U 	c #5FAD6A",
"V 	c #68B474",
"W 	c #28912F",
"X 	c #71BC7E",
"Y 	c #65B270",
"Z 	c #81C98F",
"` 	c #319438",
" .	c #98DCA8",
"..	c #4FA359",
"+.	c #4BA154",
"@.	c #85CB93",
"#.	c #70BB7D",
"$.	c #99DDA8",
"%.	c #82C98F",
"&.	c #76BF82",
"*.	c #8DD39C",
"=.	c #6DB879",
"-.	c #6DB979",
";.	c #98DCA7",
">.	c #87CE95",
",.	c #449D4C",
"'.	c #90D59F",
").	c #3A9842",
"!.	c #7DC58A",
"~.	c #389740",
"{.	c #228E2A",
"].	c #9ADEAA",
"^.	c #6EB97A",
"/.	c #50A45A",
"(.	c #8BD099",
"_.	c #64B16F",
":.	c #65B371",
"<.	c #51A55B",
"[.	c #3D9946",
"}.	c #35963D",
"|.	c #36963E",
"1.	c #67B372",
"2.	c #7CC489",
"3.	c #79C286",
"4.	c #48A052",
"5.	c #59AA64",
"6.	c #52A55D",
"7.	c #7BC388",
"8.	c #6AB676",
"9.	c #6CB778",
"0.	c #85CC94",
"a.	c #7BC488",
"b.	c #90D59E",
"c.	c #469D4E",
"d.	c #9BDEAB",
"e.	c #3F9A48",
"f.	c #72BC7E",
"g.	c #55A75F",
"h.	c #3D9945",
"i.	c #95D9A4",
"j.	c #6BB777",
"k.	c #60AF6B",
"l.	c #1F8C26",
"m.	c #419B49",
"n.	c #74BE81",
"o.	c #37963F",
"p.	c #65B271",
"q.	c #6CB777",
"r.	c #62B06D",
"s.	c #449D4D",
"t.	c #248E2B",
"u.	c #67B473",
"v.	c #429C4B",
"w.	c #3F9B48",
"x.	c #3B9843",
"y.	c #36963D",
"z.	c #34953B",
"A.	c #399741",
"B.	c #469F4F",
"C.	c #5CAB66",
"D.	c #9EE0AE",
"E.	c #9EE1AE",
"                        . . . . . . . .                         ",
"                  . . . . . . . . . . . . . .                   ",
"                . . . . . . . . . . . . . . . .                 ",
"            + @ # $ % & * = - ; > , ' ) ! . . . . .             ",
"          ~ { ] ^ / / ( _ : < [ } | / / ^ 1 2 . . . .           ",
"        . . . . 3 / / 4 . . . . . 5 6 7 8 / / 9 0 . . .         ",
"      . . . . . a / / { . . . . . . . . b c / / d e . . .       ",
"      . . . . . a / / f . . . . . . . . . g h / / i ~ . .       ",
"    . . . . . . a / / j . . . . . . . . . . k l / / m . . .     ",
"  . . . . . . . a / / j . . . . . . . . . . . n / / o p . . .   ",
"  . . . . . . . a / / j q r p . . ~ ~ . . . . s / / / t . . .   ",
"  . . . . . . . a / / j . u v w x y z 1 A B . 5 C / / D . . .   ",
". . . . . . . . a / / j . E F G H I e J K L M . N / / O . . . . ",
". . . . . . . . a / / j p c 6 u v P Q R S T U . V / / W 5 . . . ",
". . . . . . . . a / / j X Y . Z ` v  ...q ~ +.@.#./ / ^ $.. . . ",
". . . . . . . . a / / j j %.. &.' u v *.M . =.-.a / / ( ;.. . . ",
". . . . . . . . a / / j >.,. .'.).!.4 v p '.~.e ' / / {.].. . . ",
". . . . . . . . a / / j . ^./.e (._.F :.<.[.2 . V / / }.. . . . ",
". . . . . . . . a / / j . . % |.1.2.3.$ u 4.p . 5./ / 6.. . . . ",
". . . . . . . . a / / j . . . 0 7.8.9.0.. u v S [./ / * . . . . ",
"  . . . . . . . a / / j . . . . . . . . . . a.b.( / / s . . .   ",
"  . . . . . . . a / / j . . . . . . . . . . . % / / c.B . . .   ",
"  . . . . . . . a / / j . . . . . . . . . . d.e./ / t . . . .   ",
"    . . . . . . f./ / j . . . . . . . . . . #./ / g.B . . .     ",
"      . . . . . ' / / j . . . . . . . . . a.^ / h.i.. . .       ",
"      . . . . . j./ / j . . . . . . . b.k.l./ m.b . . . .       ",
"        . M 2 n.x / / o.p.7 j.=.q.r.s.( / t.u.;.. . . .         ",
"          6 v.s.x s.v.w.Q x.~.y.z.A.B.C.% e . . . . .           ",
"            D.. . . D.D.E.E.. . . . . . . . . . . .             ",
"                . . . . . . . . . . . . . . . .                 ",
"                  . . . . . . . . . . . . . .                   ",
"                        . . . . . . . .                         "};
