/* XPM */
static char * C:\Users\Ronan\Desktop\DRIP images\pixmaps\newlogo\bitcoin32_xpm[] = {
"26 32 184 2",
"  	c None",
". 	c #FF9E0D",
"+ 	c #FF9F0E",
"@ 	c #FF9F12",
"# 	c #FF9D00",
"$ 	c #FF9F15",
"% 	c #FFA016",
"& 	c #FF9D01",
"* 	c #FFA11B",
"= 	c #FFA11C",
"- 	c #FFA221",
"; 	c #FF9D02",
"> 	c #FF9E0B",
", 	c #FF9D03",
"' 	c #FF9D04",
") 	c #FF9E05",
"! 	c #FFA018",
"~ 	c #FFA017",
"{ 	c #FF9E06",
"] 	c #FFA220",
"^ 	c #FFA820",
"/ 	c #FFC625",
"( 	c #FFAE0C",
"_ 	c #FFC71A",
": 	c #FFC81A",
"< 	c #FFC81B",
"[ 	c #FFC925",
"} 	c #FFA014",
"| 	c #FA9C29",
"1 	c #D19282",
"2 	c #E9985B",
"3 	c #FFAF0F",
"4 	c #FFC619",
"5 	c #FB9C21",
"6 	c #7681C3",
"7 	c #2E7AD8",
"8 	c #5682D1",
"9 	c #D7B57E",
"0 	c #FEC81F",
"a 	c #B27C6C",
"b 	c #3077D1",
"c 	c #267AD9",
"d 	c #267DDB",
"e 	c #2681DD",
"f 	c #4185D9",
"g 	c #C2AC97",
"h 	c #FCC729",
"i 	c #FFC81D",
"j 	c #FFA11D",
"k 	c #A5681D",
"l 	c #32456E",
"m 	c #2875CC",
"n 	c #3282DB",
"o 	c #A9A2AC",
"p 	c #F9C539",
"q 	c #FFCA28",
"r 	c #FF9D07",
"s 	c #A5681B",
"t 	c #352E27",
"u 	c #344058",
"v 	c #2A73C1",
"w 	c #2A81DC",
"x 	c #8E99BD",
"y 	c #F2C24D",
"z 	c #FFC81F",
"A 	c #FF9102",
"B 	c #FF9C00",
"C 	c #FF9E01",
"D 	c #A56E1E",
"E 	c #353128",
"F 	c #373A43",
"G 	c #7F8CB0",
"H 	c #3082DC",
"I 	c #2781DD",
"J 	c #708FCB",
"K 	c #E7BD66",
"L 	c #FFC81C",
"M 	c #FF8A1A",
"N 	c #FF8500",
"O 	c #FF8F00",
"P 	c #FFB410",
"Q 	c #A58223",
"R 	c #3A3428",
"S 	c #E0B12E",
"T 	c #BEAB9A",
"U 	c #3F84D9",
"V 	c #5488D4",
"W 	c #E4BB6F",
"X 	c #FF8B29",
"Y 	c #FFB510",
"Z 	c #A58323",
"` 	c #E4B31E",
" .	c #FEC820",
"..	c #D4B582",
"+.	c #CEB191",
"@.	c #FFCB2E",
"#.	c #FF8D2F",
"$.	c #FFB511",
"%.	c #E6BD66",
"&.	c #6A8DCC",
"*.	c #CEB192",
"=.	c #FFCB2F",
"-.	c #FF8A1C",
";.	c #FF8600",
">.	c #FF9108",
",.	c #FFAB12",
"'.	c #FFC61A",
").	c #E8BA58",
"!.	c #6D78B7",
"~.	c #2679D6",
"{.	c #FF8501",
"].	c #FF9208",
"^.	c #FF9A0D",
"/.	c #FEC81E",
"(.	c #D7B070",
"_.	c #576CBB",
":.	c #265EC4",
"<.	c #2660C5",
"[.	c #2774D3",
"}.	c #FF8602",
"|.	c #FFAA12",
"1.	c #A57F23",
"2.	c #E1B128",
"3.	c #C2A386",
"4.	c #4265C0",
"5.	c #526BBD",
"6.	c #E4B867",
"7.	c #FF9618",
"8.	c #A5681F",
"9.	c #37363B",
"0.	c #857C99",
"a.	c #3261C2",
"b.	c #275EC4",
"c.	c #6C75B5",
"d.	c #E5B85D",
"e.	c #FFC924",
"f.	c #FF9A0E",
"g.	c #A5661F",
"h.	c #352D27",
"i.	c #34374B",
"j.	c #2B54A9",
"k.	c #265EC3",
"l.	c #295FC4",
"m.	c #8882AA",
"n.	c #F1BF48",
"o.	c #FF9B17",
"p.	c #A56620",
"q.	c #32365E",
"r.	c #2953B3",
"s.	c #3060C3",
"t.	c #A4919C",
"u.	c #F8C436",
"v.	c #FFC922",
"w.	c #FF9A10",
"x.	c #AE7161",
"y.	c #2E55BA",
"z.	c #2657C2",
"A.	c #2659C3",
"B.	c #3D63C1",
"C.	c #BC9F8B",
"D.	c #FCC628",
"E.	c #FA9827",
"F.	c #CA847C",
"G.	c #6B64B3",
"H.	c #2B58C1",
"I.	c #4F60BC",
"J.	c #D1A977",
"K.	c #FEC71F",
"L.	c #FF9B12",
"M.	c #FF9A0F",
"N.	c #F8972F",
"O.	c #C8837D",
"P.	c #E48F5B",
"Q.	c #FFA513",
"R.	c #FFC419",
"S.	c #FFC81E",
"T.	c #FF9C1B",
"U.	c #FFA410",
"V.	c #FFC319",
"W.	c #FF9D1C",
"X.	c #FFA310",
"Y.	c #FFC31C",
"Z.	c #FF9F26",
"`.	c #FF9F27",
"                                                    ",
"                        . +                         ",
"                      @ # # $                       ",
"                    % # # # & *                     ",
"                  = & # # # # & -                   ",
"                  ; # & . > & # ,                   ",
"                ' ) !         ~ ' {                 ",
"              ~ ]                 ^ /               ",
"                                                    ",
"                                                    ",
"        ! & & & & & & & & & ( _ : : : : < [         ",
"      } # # # # # ; | 1 2 3 4 : : : : : : : [       ",
"    = & # # # # 5 1 6 7 8 9 0 : : : : : : : :       ",
"    ' # # # # # a b c d e f g h : : : : : : : i     ",
"  j # # # # # # k l m e e e n o p : : : : : : : q   ",
"  r # # # # # # s t u v e e e w x y : : : : : : z   ",
"  A B # # # # C D E E F G H e e I J K L : : : : <   ",
"M N O B # # C P Q E E R S T U e e e V W : : : : :   ",
"X N N O B C Y _ Z E E R `  ...V e e I +.< : : : : @.",
"#.N N N O $._ : Z E E R ` : L %.&.e I *.< : : : : =.",
"-.N N ;.>.,.'.: Z E E R ` : < ).!.~.I *.< : : : :   ",
"  {.;.].^.^.,.'.Z E E R ` /.(._.:.<.[.+.< : : : <   ",
"  }.].^.^.^.^.|.1.E E R 2.3.4.:.:.:.5.6.: : : : <   ",
"  7.^.^.^.^.^.^.8.E E 9.0.a.:.:.b.c.d.< : : : : e.  ",
"    f.^.^.^.^.^.g.h.i.j.k.:.:.l.m.n.: : : : : <     ",
"    o.^.^.^.^.^.p.q.r.:.:.:.s.t.u.: : : : : : v.    ",
"      w.^.^.^.^.x.y.z.A.:.B.C.D.: : : : : : i       ",
"        w.^.^.^.E.F.G.H.I.J.K.: : : : : : i         ",
"          L.^.^.^.M.N.O.P.Q.R.: : : : : S.          ",
"            T.f.^.^.^.f.f.^.U.V.: : < [             ",
"                W.L.f.^.^.^.^.X.Y.[                 ",
"                        Z.`.                        "};
